#!OML:ASF F:\VICON\USERDATA\INSTALL\rory3\rory3.ASF
:FULLY-SPECIFIED
:DEGREES
27
root 1.021419365659175 17.510339816537904 1.4295897088705356 -0.8414203822105073 -3.6893351260959912 -6.930590175283337
lfemur -26.319507438084038 -5.267617170729961 -10.163110911708406
ltibia 14.677546720975531
lfoot -9.973266030361739 3.1751618719605705
ltoes -6.947069996332787
rfemur 1.3755280976088642 2.9053701700525196 33.69701185170427
rtibia 28.790288273734035
rfoot -12.223272230670968 -8.788289665775274
rtoes 1.860041013809055
lowerback 11.84180687001286 1.5389704060009401 4.87808616780336
upperback -0.5688559830758597 2.990052214138152 2.0730640277646533
thorax -6.11954582259693 1.3969220839072984 -1.669145362512489
lowerneck -16.562685418241504 -3.860770142708551 -1.5668252619573717
upperneck 21.07744207043684 -5.473835082399283 1.9479057841063225
head 9.58919367426806 -2.453856007801734 0.08757177526377741
lclavicle 2.942059301635716e-16 5.1816426635778355e-17
lhumerus -33.60131221128927 11.58566277480252 78.66765830511349
lradius 18.997939575354728
lwrist 0.9912961854069238
lhand -29.038563825012172 18.772586106167193
lfingers 7.125020000000001
lthumb -2.463486921628556 48.45335786286086
rclavicle 3.0544951145709433e-16 5.968230204461218e-17
rhumerus -19.710818331188197 -10.794948208981777 -82.51801103224719
rradius 35.459786410061014
rwrist -2.3670163389175687
rhand -18.903582613037305 23.303577494759903
rfingers 7.125020000000001
rthumb 7.386188122944706 -6.7420457472120585
28
root 1.0452123527021895 17.65064597009962 3.2487385773949953 -0.6426545102113583 -3.838215467161901 -5.968160398442301
lfemur -25.604551643208 -4.889459840567378 -12.359692983058917
ltibia 14.900531882435736
lfoot -8.73821133811432 1.0510740884155076
ltoes -8.600196465816184
rfemur 1.5803710657238277 3.126824765057889 31.723011490237276
rtibia 31.16632881701979
rfoot -10.701538606161579 -8.415764306196646
rtoes -0.5384549291439611
lowerback 11.424207023059312 1.5962864299612385 4.256449343391374
upperback -0.6274035043881907 3.017655280261849 1.9258038581249965
thorax -6.058197648036417 1.4446709838100644 -1.5090071157555516
lowerneck -16.60275103469183 -3.890963842760635 -1.6593818572192682
upperneck 21.139240959196034 -5.499408564340831 2.0804916933892477
head 9.60781160678859 -2.4484173665419426 0.15203462443834254
lclavicle 2.9727256091982028e-16 5.40334674454037e-17
lhumerus -33.9561118014102 11.629442747886273 78.37030849962686
lradius 18.76255301163642
lwrist 0.44579140821671714
lhand -28.873265501992172 18.840693707198184
lfingers 7.125020000000001
lthumb -2.241735637608853 48.688015684283876
rclavicle 3.069809765647635e-16 6.060453154946744e-17
rhumerus -19.530355860656414 -11.60831585198357 -82.58161383532807
rradius 35.375085418198665
rwrist -2.159181887281417
rhand -18.830008512889886 23.68405845991417
rfingers 7.125020000000001
rthumb 7.39673892258073 -6.236187846909298
29
root 1.0617829185140284 17.79994155332924 3.4845953696492176 -0.617136014199331 -3.7991547346392895 -4.88583874669115
lfemur -24.428362898560845 -4.1986791508396255 -14.72956849809912
ltibia 18.49607409846354
lfoot -6.203515417389016 -2.058176179468224
ltoes -10.27943854075393
rfemur 0.8494324981297954 3.3374142661609363 29.673624277817595
rtibia 35.10970728768403
rfoot -7.908864270904292 -8.215713312615833
rtoes -1.1382328124689942
lowerback 11.133251651840908 1.6334755678678685 3.5230178174274824
upperback -0.6156838576889612 2.910139594894594 1.7033418618018843
thorax -6.077752392136426 1.3979477086550292 -1.3753022760458766
lowerneck -16.474975643364942 -3.9578731139087204 -1.7513169305602778
upperneck 21.178644838524 -5.654879136963107 2.279368903703073
head 9.568649591677705 -2.4911644333982284 0.21917966633374433
lclavicle 2.967680555542337e-16 5.3672515315035154e-17
lhumerus -34.18709564264088 11.76030577736317 78.1475932659515
lradius 18.752941311307907
lwrist 0.031894277468299315
lhand -28.559856449510473 19.21330956350132
lfingers 7.125020000000001
lthumb -1.9444781452542403 49.2394649784477
rclavicle 3.0554169409340015e-16 5.943479764373274e-17
rhumerus -19.96168172453268 -12.802837416113675 -82.44391527944641
rradius 34.78174818349855
rwrist -1.5287490810636997
rhand -18.896132676725916 23.73673445837369
rfingers 7.125020000000001
rthumb 7.43040983402019 -6.052201279446594
30
root 1.0696275057690492 18.012617369382962 6.089360795848694 -0.8685256930892591 -3.5873625461669114 -3.093862656960848
lfemur -21.510806236813078 -3.919749312295865 -17.829491679081514
ltibia 21.131572086199814
lfoot -3.3463600000777896 -5.490690250364231
ltoes -8.658831764395925
rfemur -1.2445822426459987 2.901144484953391 26.531518159290425
rtibia 40.855396060008516
rfoot -3.859447464514803 -8.251466822192612
rtoes 0.991794094661206
lowerback 10.677270666241146 1.6331007904832626 2.025984072091102
upperback -0.45218540697975196 2.44692196796593 1.2813445167293342
thorax -6.0367934612141845 1.180825357714917 -1.007904559000264
lowerneck -16.394892101756597 -4.043715183191415 -1.830894103584281
upperneck 21.511216537931027 -5.782458225710519 2.351637787050803
head 9.629419614699454 -2.5299440564766975 0.23961347174356387
lclavicle 2.9862321957802965e-16 5.499405734648451e-17
lhumerus -34.41695697992371 11.424596612531708 78.24741278734409
lradius 19.151543187599117
lwrist 0.40826260363198585
lhand -28.210087792715065 19.7826652187874
lfingers 7.125020000000001
lthumb -1.619398790407622 49.93620845291154
rclavicle 3.0343754909339653e-16 5.794084484104421e-17
rhumerus -21.503895779701335 -14.487112826510506 -82.01671295556298
rradius 34.04226635475886
rwrist -0.5811437010816554
rhand -18.99277006217193 23.84539860994527
rfingers 7.125020000000001
rthumb 7.31404648176778 -6.024444905157382
31
root 0.9691998922689365 18.040989706919113 6.501564534575133 -1.381335483959126 -3.2626490752584965 -2.9721997056920704
lfemur -18.217147708403132 -3.1646392893335307 -19.10508665430998
ltibia 23.372288355014682
lfoot -1.838281626766066 -8.04305221591862
ltoes -7.272427662132331
rfemur -4.52550599196748 2.1132510686557398 25.28426732284654
rtibia 47.50850427314722
rfoot 0.6301538852157913 -8.83347605304104
rtoes 5.645841166447603
lowerback 10.777594215065848 1.5449235046600132 1.9181024430200815
upperback -0.48823034592977843 2.3900896438557844 1.1385603927240346
thorax -6.221773241126916 1.1023435809571913 -0.5506705675445962
lowerneck -16.236413127735634 -4.064781138826086 -2.0237814216826133
upperneck 21.789713793237766 -5.787529890638784 2.528072007610751
head 9.670899530668965 -2.527240992712989 0.3038227766135062
lclavicle 3.010828588334421e-16 5.679400891027753e-17
lhumerus -34.41205548686086 10.83601200061654 78.519309717583
lradius 19.655171514336974
lwrist 2.587464650371434
lhand -28.40961035951485 20.096342335406256
lfingers 7.125020000000001
lthumb -1.8487547293174815 49.8968566705286
rclavicle 3.0010142284315176e-16 5.557530760356054e-17
rhumerus -23.49717377344772 -16.371174813842437 -81.39771217483722
rradius 33.1456444499501
rwrist 0.6327391267638638
rhand -18.898098592548955 23.901742363015178
rfingers 7.125020000000001
rthumb 7.4450274284656075 -6.185817602506569
32
root 0.8854129227650578 18.058420214451157 7.81955475761141 -1.7492416875681782 -3.0300389039854814 -2.459209849273768
lfemur -15.106698985267833 -2.3500335366204204 -20.561285093984953
ltibia 25.339408932891363
lfoot -1.5686811805989453 -8.071173592459552
ltoes -5.108573553013391
rfemur -8.904874159330365 1.4663271370507491 24.001592849879184
rtibia 53.89471267735909
rfoot 3.1335349873860183 -10.196577373029855
rtoes 9.347211981018031
lowerback 10.967028881520273 1.4312736793224274 1.270923863201944
upperback -0.5428480097464583 2.1456287514402144 0.9595900606394908
thorax -6.379070054158193 1.0359303329840803 -0.20532034310320602
lowerneck -16.240252168580927 -3.9771041820386843 -1.978470127674894
upperneck 21.8492406833991 -5.661466206715273 2.372583186238117
head 9.67703667680628 -2.494236520819088 0.2740912714633616
lclavicle 2.9898905358638194e-16 5.5299289619758245e-17
lhumerus -34.10448088112305 9.991804526073462 78.93207553014214
lradius 20.427607360010015
lwrist 4.7874188625573755
lhand -29.17789969914118 18.955709005042227
lfingers 7.125020000000001
lthumb -2.529059277190044 48.52331931370708
rclavicle 3.03669215492175e-16 5.819100576841795e-17
rhumerus -25.15887706415061 -17.63344675066472 -80.90148679857977
rradius 32.378480990326885
rwrist 1.595867266386802
rhand -18.572765827023918 23.49733743121848
rfingers 7.125020000000001
rthumb 7.794149815467947 -6.508089068361472
